<svg version="1.1" id="Layer_1" xmlns="http://www.w3.org/2000/svg" xmlns:xlink="http://www.w3.org/1999/xlink" x="0px" y="0px"
	 width="100%" viewBox="0 0 800 752" enable-background="new 0 0 800 752" xml:space="preserve">
<path fill="#000000" opacity="1.000000" stroke="none" 
	d="
M132.199890,487.937378 
	C128.911819,486.798157 128.405609,483.951630 127.393890,481.577820 
	C117.068993,457.352295 104.688087,434.121918 93.077965,410.518982 
	C92.656212,409.661530 92.368332,408.620087 90.812363,408.324249 
	C88.834816,416.859070 88.524033,425.631653 87.128723,434.232788 
	C84.465988,450.646667 83.229668,467.218689 81.390068,483.723358 
	C81.119690,486.149170 80.024460,487.361237 77.594902,487.376740 
	C71.931122,487.412811 66.266975,487.511078 60.603813,487.469513 
	C57.985966,487.450317 57.145771,485.983856 57.754284,483.463379 
	C62.516891,463.736816 64.667145,443.553711 67.380402,423.520386 
	C70.522621,400.319763 74.744003,377.194641 75.323517,353.689117 
	C75.397430,350.690796 76.560776,348.692627 79.427223,347.524200 
	C82.614334,346.225067 84.843185,346.657288 86.194160,350.104614 
	C95.868294,374.790405 108.482567,398.084106 120.229050,421.787323 
	C124.570526,430.547974 129.079773,439.225464 133.699554,448.308624 
	C136.084976,446.702423 136.915115,444.517426 137.917252,442.524109 
	C149.431808,419.620605 160.972656,396.729980 172.372192,373.769226 
	C175.920441,366.622375 179.266510,359.358154 182.308609,351.984039 
	C183.891220,348.147766 186.623810,347.692169 189.942978,348.155640 
	C193.378983,348.635345 193.058655,351.445892 193.231979,353.951996 
	C194.654678,374.523712 197.642090,394.899292 200.576843,415.298187 
	C203.200851,433.537109 205.233185,451.863525 208.281998,470.044739 
	C208.912643,473.805573 209.667175,477.567932 210.712311,481.230377 
	C211.671402,484.591339 210.489212,486.462921 207.314453,487.116486 
	C202.099426,488.190094 196.860199,489.172699 191.598679,489.982452 
	C189.033173,490.377289 187.249039,488.942352 187.249542,486.346069 
	C187.252563,471.002563 183.887497,456.009735 182.581024,440.797638 
	C181.633362,429.763550 179.452789,418.835327 177.633575,406.591888 
	C172.817093,416.126801 168.432419,424.587830 164.244095,433.144958 
	C156.121933,449.739410 147.138336,465.915985 140.085510,483.032074 
	C138.759705,486.249603 135.996231,487.723480 132.199890,487.937378 
z"/>
<path fill="#000000" opacity="1.000000" stroke="none" 
	d="
M324.124146,216.060791 
	C330.488892,212.765930 336.281311,209.367645 343.590576,209.503342 
	C349.196259,209.607376 353.593567,211.165756 357.246063,215.360901 
	C367.416687,227.042633 377.627472,238.690033 387.913025,250.270493 
	C390.115723,252.750519 392.636200,254.964066 395.129242,257.165649 
	C397.303406,259.085632 399.238586,258.768738 400.963440,256.308807 
	C410.666107,242.471146 418.574371,227.670471 424.750092,211.954071 
	C428.392090,202.685654 431.203369,193.152359 433.563141,183.277023 
	C430.883698,181.604843 428.177368,182.403717 425.628632,182.311722 
	C394.423035,181.185425 368.885834,168.098083 348.509674,144.933716 
	C340.434235,135.753250 337.849030,124.028069 336.960144,112.032005 
	C336.771973,109.492424 337.274231,107.055885 339.914124,105.640343 
	C342.479156,104.264931 344.311798,105.572998 346.256592,107.006477 
	C358.067535,115.712082 371.937103,119.243073 385.817444,122.839058 
	C399.670990,126.428093 413.538849,130.041809 425.380951,138.739807 
	C429.681061,141.898239 433.145660,145.904007 437.319641,150.105301 
	C438.543854,138.357758 437.295471,127.386169 435.466736,116.441231 
	C435.137817,114.472809 434.960236,112.472527 434.519165,110.530930 
	C433.837616,107.530861 434.862885,105.520103 437.854523,104.938644 
	C440.781494,104.369766 441.784546,106.206291 442.530731,108.825760 
	C445.343445,118.699936 445.240997,128.900482 446.244476,138.976288 
	C446.405273,140.591095 446.427002,142.219772 446.508362,143.754410 
	C447.188904,143.887360 447.640015,144.114456 447.794098,143.985825 
	C463.697113,130.706146 483.156250,126.181084 502.590210,121.412437 
	C513.124207,118.827629 523.253113,114.997147 532.096375,108.401588 
	C533.156921,107.610611 534.316040,106.878685 535.537720,106.389702 
	C540.475952,104.413017 542.384216,105.683411 542.319702,110.981819 
	C542.077271,130.888000 532.595947,145.832840 517.065979,157.399490 
	C500.083099,170.048309 481.039612,178.123276 460.266327,181.914108 
	C455.591461,182.767212 450.624359,182.255203 445.810242,182.009796 
	C443.391602,181.886490 441.963898,182.406281 441.430450,184.844803 
	C435.402100,212.401108 423.245605,237.213303 407.572815,260.453369 
	C407.428345,260.667572 407.554840,261.064453 407.554840,261.830017 
	C414.088043,260.881104 420.055206,258.404480 425.954437,255.908417 
	C442.656647,248.841354 457.792755,239.245102 471.340851,227.162170 
	C480.994934,218.552200 492.127014,215.439758 504.688110,218.894974 
	C512.518005,221.048767 518.232727,226.603424 523.637634,232.295593 
	C537.629639,247.031265 551.501587,261.881195 565.368774,276.734680 
	C566.639893,278.096222 569.034119,279.210236 568.008850,281.621246 
	C567.020264,283.945984 564.566833,283.093475 562.675903,283.360809 
	C558.518311,283.948700 555.586182,282.314697 552.693848,279.175690 
	C538.361511,263.620880 523.778931,248.296341 509.241028,232.931747 
	C505.903595,229.404526 502.008484,226.585342 497.787628,224.138031 
	C493.804169,221.828369 490.525696,222.055542 486.910950,225.108078 
	C478.387512,232.305756 469.843964,239.525040 460.218445,245.266266 
	C445.603058,253.983780 430.502563,261.411987 413.782410,265.547119 
	C396.630463,269.789032 384.060638,263.512329 373.379883,250.703384 
	C364.421173,239.959564 354.983734,229.615540 345.989838,218.900116 
	C342.907440,215.227707 340.389954,214.683929 335.923767,217.035400 
	C304.844055,233.399063 273.597839,249.447037 242.371201,265.530518 
	C238.118652,267.720825 233.674866,269.506195 228.369553,265.580322 
	C260.181793,249.137329 291.994019,232.694351 324.124146,216.060791 
M499.058868,147.584442 
	C484.380066,160.105240 466.331940,166.538101 448.341522,174.705017 
	C453.273346,177.032379 457.286835,176.991180 461.489807,176.510406 
	C476.958435,174.740967 490.381317,167.834854 503.308929,159.858795 
	C515.235291,152.500488 524.376953,142.561859 529.249634,129.159378 
	C530.697144,125.177765 532.020691,121.124214 531.334473,116.482101 
	C530.224182,116.625252 529.527649,116.555656 528.980591,116.808922 
	C515.771301,122.924248 501.625366,125.941109 487.683197,129.755615 
	C476.653412,132.773300 465.774811,136.697723 457.085388,144.824997 
	C449.958496,151.490814 444.977203,159.116272 444.687714,169.052338 
	C446.422943,169.893646 447.502472,169.493576 448.584290,169.003830 
	C455.100159,166.053955 461.691101,163.258835 468.120667,160.131805 
	C478.327911,155.167480 488.354065,149.888596 495.608673,140.702560 
	C497.006531,138.932571 499.119537,138.211975 501.171570,137.528687 
	C502.631073,137.042679 504.220978,136.838577 505.238312,138.351120 
	C506.209198,139.794617 505.046783,140.895691 504.232941,141.879242 
	C502.749481,143.672028 501.128418,145.350937 499.058868,147.584442 
M376.600983,137.992249 
	C379.407013,136.318054 380.969940,138.356003 382.466064,140.106293 
	C384.854401,142.900330 387.275421,145.630966 390.285522,147.786179 
	C403.386505,157.166412 418.183472,163.119324 433.007233,169.242294 
	C434.626709,167.407776 434.766266,165.690079 434.097900,163.565735 
	C432.771912,159.351105 430.487732,155.692703 427.847076,152.268539 
	C419.288239,141.170273 407.148346,135.882477 394.242676,131.950943 
	C378.842499,127.259514 362.782074,124.629868 348.264038,117.181000 
	C347.697388,116.890244 346.953827,116.841843 346.495026,117.566277 
	C346.438354,151.729065 408.337341,182.059738 430.498322,175.180756 
	C430.083893,173.615112 428.597595,173.502472 427.464905,172.995758 
	C420.776001,170.003510 413.988220,167.221161 407.380707,164.060822 
	C396.848755,159.023438 386.404999,153.776047 378.396576,144.905350 
	C376.773499,143.107513 374.501282,141.443741 376.600983,137.992249 
z"/>
<path fill="#000000" opacity="1.000000" stroke="none" 
	d="
M243.276688,458.635742 
	C225.117752,429.784180 227.954117,392.958252 250.769684,368.112579 
	C262.398926,355.448608 277.466339,348.302887 294.545013,346.286316 
	C313.606781,344.035553 332.166229,345.874908 348.977356,356.218567 
	C365.989380,366.685791 376.708984,381.537598 380.617798,401.392334 
	C385.724091,427.330109 380.631958,450.444305 361.766602,469.400177 
	C348.587769,482.642181 331.934723,489.067932 313.349091,490.266998 
	C299.212769,491.179047 285.501038,489.517609 272.447083,483.431183 
	C260.514496,477.867615 250.749832,469.924957 243.276688,458.635742 
M265.723053,382.223175 
	C254.922211,397.424988 251.271057,413.976044 255.713913,432.304718 
	C263.887756,466.025177 300.621643,484.588623 331.952179,467.333527 
	C357.091461,453.488281 366.586304,421.703400 355.615967,394.898926 
	C340.063446,356.898499 290.547852,350.827545 265.723053,382.223175 
z"/>
<path fill="#000000" opacity="1.000000" stroke="none" 
	d="
M511.082306,478.053833 
	C507.449615,484.671600 500.886078,487.695068 495.609344,492.124878 
	C493.426971,493.957031 491.701447,491.734497 490.472015,489.813171 
	C481.754211,476.189545 472.086395,463.241638 462.381531,450.319946 
	C460.681091,448.055847 458.985138,445.788055 457.316437,443.500610 
	C448.476440,431.382660 448.483551,431.461029 433.681580,432.171509 
	C430.580566,432.320374 429.729126,433.417175 429.830780,436.408203 
	C430.350159,451.693176 428.768188,467.023987 430.889008,482.280090 
	C431.377075,485.791046 429.758911,487.684326 426.112244,487.627441 
	C421.447723,487.554626 416.777710,487.300201 412.120514,487.449677 
	C407.944977,487.583679 406.436584,485.812500 406.740173,481.753845 
	C409.005157,451.474091 407.414459,421.145050 407.738251,390.839935 
	C407.869720,378.537903 408.579529,366.187714 406.801025,353.916107 
	C406.295197,350.426025 407.273804,347.678589 411.410309,348.055939 
	C429.425323,349.699310 447.582825,345.950562 465.598175,350.491180 
	C483.222748,354.933319 495.486298,367.565582 498.036743,386.030090 
	C500.226959,401.886902 491.835388,417.422119 476.673981,425.597717 
	C475.375641,426.297882 474.107391,427.053833 472.320221,428.071381 
	C474.588440,431.202576 476.654083,434.150879 478.818115,437.025055 
	C489.224152,450.846100 499.683197,464.626160 511.082306,478.053833 
M429.844604,370.301880 
	C428.827515,383.581818 429.627441,396.885193 429.339417,410.174805 
	C429.280548,412.891479 429.116180,415.722198 433.190277,415.664581 
	C442.127991,415.538147 451.062500,416.284668 459.799103,413.101929 
	C469.515320,409.562286 476.099121,400.843384 475.790436,390.766693 
	C475.400818,378.049347 469.009399,369.326019 458.238159,366.485657 
	C450.211761,364.369049 442.084869,364.968750 433.959167,365.191437 
	C431.185028,365.267456 429.553162,366.508301 429.844604,370.301880 
z"/>
<path fill="#000000" opacity="1.000000" stroke="none" 
	d="
M522.553467,473.575562 
	C540.416748,434.680084 558.097717,396.110321 575.822510,357.560699 
	C577.874146,353.098541 579.272888,348.050873 585.191895,346.803436 
	C588.331909,346.141632 590.097290,346.892456 591.290039,350.079010 
	C603.240540,382.008209 616.805542,413.287506 629.647888,444.858032 
	C634.474548,456.723328 639.668823,468.440704 644.814270,480.173431 
	C645.945374,482.752625 646.026184,484.750580 643.094910,485.801849 
	C638.087524,487.597809 633.039307,489.284454 627.976990,490.920441 
	C625.345764,491.770844 623.589172,491.003937 622.649658,488.113617 
	C618.486755,475.307312 613.719543,462.719330 608.814880,450.178101 
	C606.001221,442.983429 605.381958,442.339661 597.551331,442.328766 
	C586.723755,442.313721 575.894165,442.453552 565.069458,442.278473 
	C559.876465,442.194489 556.619202,443.631622 554.372131,448.972839 
	C549.542053,460.453857 543.841187,471.571930 539.740173,483.369171 
	C538.804749,486.060059 537.297668,487.483704 534.284668,487.432220 
	C529.792542,487.355438 525.294678,487.655884 520.800781,487.618408 
	C516.812866,487.585175 515.781494,485.803528 517.648926,482.123840 
	C519.077515,479.308899 520.795227,476.640717 522.553467,473.575562 
M574.162598,404.570801 
	C571.022034,411.642609 567.881470,418.714417 564.344421,426.679077 
	C575.598755,426.679077 585.987488,426.757324 596.373596,426.627228 
	C599.172363,426.592163 598.832703,424.646820 598.097656,422.683350 
	C595.890198,416.786102 594.057861,410.726410 591.500000,404.988342 
	C588.712280,398.734589 587.175232,391.917480 582.925232,385.118317 
	C579.871399,391.909088 577.177917,397.898499 574.162598,404.570801 
z"/>
<path fill="#000000" opacity="1.000000" stroke="none" 
	d="
M699.331787,390.383667 
	C707.103088,377.735748 715.309875,365.767151 721.879883,352.828400 
	C723.600952,349.438995 726.087830,347.910828 729.833740,347.999939 
	C734.328247,348.106842 738.841187,347.816010 743.319763,348.105774 
	C747.815308,348.396606 748.804016,350.782562 746.069214,354.366333 
	C730.787659,374.391602 718.264526,396.241943 704.403931,417.206665 
	C703.096008,419.184967 702.156372,421.249939 702.193176,423.710876 
	C702.489502,443.513245 701.178162,463.355927 703.601746,483.101288 
	C703.950256,485.940582 702.895020,487.299286 700.242981,487.403046 
	C695.255676,487.598206 690.261902,487.631195 685.270752,487.726990 
	C681.063965,487.807678 679.257568,485.916962 679.729736,481.579590 
	C681.790039,462.650452 680.349915,443.646729 680.843933,424.683258 
	C680.943726,420.851837 680.078613,417.609589 677.883057,414.425507 
	C665.313782,396.197266 653.019104,377.778046 640.299194,359.656769 
	C637.475159,355.633484 638.009033,353.617126 642.071350,351.602417 
	C645.798218,349.754089 649.524536,347.860260 653.051636,345.665833 
	C656.570801,343.476379 658.495361,344.749756 660.156677,347.990112 
	C668.913147,365.069214 680.561340,380.338318 690.684326,396.563660 
	C691.271423,397.504669 691.726990,398.681274 693.328857,399.077972 
	C695.830078,396.783234 697.272156,393.581726 699.331787,390.383667 
z"/>
<path fill="#000000" opacity="1.000000" stroke="none" 
	d="
M518.813232,267.172485 
	C534.747192,283.995422 550.435852,300.563721 566.094116,317.160614 
	C567.875916,319.049255 570.339600,320.873413 567.881653,323.936005 
	C565.638733,326.730682 560.781799,327.602875 558.007141,325.335449 
	C555.571167,323.344757 553.462585,320.939087 551.296631,318.634735 
	C538.517395,305.038483 525.759766,291.421967 513.003906,277.803772 
	C509.688995,274.264709 506.078003,271.052063 502.136963,268.244507 
	C496.138123,263.971008 491.045319,263.828278 485.283539,268.495331 
	C474.011230,277.625946 462.760162,286.718414 449.860321,293.556366 
	C438.200043,299.737183 426.270386,305.279297 413.410553,308.381592 
	C401.666748,311.214691 390.898010,309.002228 381.964081,300.434570 
	C371.604187,290.499359 362.635712,279.289886 353.274841,268.453766 
	C342.437683,255.908707 342.663788,255.949326 327.931335,263.652985 
	C298.715637,278.929993 269.403473,294.022736 240.101669,309.134338 
	C238.355194,310.035004 236.378464,310.814301 234.454880,310.966187 
	C231.911224,311.166992 229.245743,310.489258 228.419815,307.612457 
	C227.626221,304.848328 229.627060,303.309875 231.775101,302.171478 
	C239.567276,298.041962 247.366440,293.924683 255.199326,289.873077 
	C279.443512,277.332520 303.701050,264.817841 327.964233,252.314087 
	C330.181671,251.171341 332.424561,250.046051 334.744293,249.139572 
	C343.830170,245.589111 350.570526,247.283722 357.045837,254.672821 
	C367.146942,266.199310 377.221741,277.748871 387.322174,289.275909 
	C397.472351,300.859680 404.664429,302.321747 419.239838,296.776367 
	C439.400665,289.106018 457.421112,278.108795 473.720428,263.994202 
	C488.403748,251.278961 502.603210,252.430817 518.813232,267.172485 
z"/>
<path fill="#000000" opacity="1.000000" stroke="none" 
	d="
M329.721436,586.168457 
	C317.920715,570.083496 321.861267,549.138306 332.588715,538.702271 
	C342.994659,528.579102 362.140289,526.007751 376.417450,532.924133 
	C391.080078,540.027222 396.703186,555.425598 394.687622,569.164795 
	C392.553101,583.714905 383.916046,593.682007 369.449371,597.664917 
	C356.039398,601.356750 343.758148,598.854248 333.071472,589.679688 
	C331.940338,588.708618 330.984344,587.533569 329.721436,586.168457 
M381.972321,557.645447 
	C377.639435,542.724060 365.604553,535.503113 351.557770,539.396606 
	C339.271973,542.802002 332.241577,556.869751 335.419373,570.738281 
	C338.444794,583.941833 352.021729,591.581482 362.241821,589.255005 
	C376.856201,585.928223 385.258453,572.816772 381.972321,557.645447 
z"/>
<path fill="#000000" opacity="1.000000" stroke="none" 
	d="
M186.486450,539.348083 
	C168.758499,534.690918 153.776443,546.806580 153.128296,563.122131 
	C152.443436,580.362793 169.436127,593.405884 186.004120,588.583374 
	C188.341797,587.902954 189.854980,586.689087 189.814011,584.076233 
	C189.811417,583.910217 189.827148,583.743530 189.841522,583.577759 
	C190.987808,570.363281 190.986282,570.454651 177.748306,570.227478 
	C175.530243,570.189392 171.855972,572.044128 171.448730,567.666748 
	C171.102921,563.949829 174.406326,560.680481 178.198990,560.666870 
	C184.689255,560.643555 191.181137,560.839050 197.670074,560.758972 
	C200.917801,560.718933 202.371735,562.213562 202.125183,565.270508 
	C201.456436,573.562805 201.280060,581.840149 202.162109,590.130188 
	C202.412445,592.482971 201.552979,594.441895 199.198532,595.357666 
	C183.548157,601.444763 162.667496,601.409668 149.618439,587.340515 
	C132.292404,568.660034 141.685120,537.147095 166.280624,530.494873 
	C177.191086,527.544006 187.320465,529.742310 197.628922,532.412109 
	C201.448044,533.401184 200.802185,536.052917 199.635559,538.729553 
	C198.510956,541.309753 197.750336,544.470032 193.690933,542.509399 
	C191.449081,541.426636 189.158173,540.445435 186.486450,539.348083 
z"/>
<path fill="#000000" opacity="1.000000" stroke="none" 
	d="
M684.762085,562.000000 
	C684.744141,552.676575 684.892334,543.848389 684.635681,535.031921 
	C684.515381,530.900879 686.570862,530.168030 689.866760,530.619812 
	C692.908508,531.036743 697.521912,528.885681 697.233276,535.004944 
	C696.943542,541.147156 696.763184,547.294617 696.470642,553.436646 
	C696.313232,556.741028 697.552185,558.195435 701.089844,558.106201 
	C709.242432,557.900513 717.404663,557.929626 725.560120,558.051208 
	C729.399231,558.108398 730.998352,556.553406 730.846191,552.701965 
	C730.623169,547.053528 731.297485,541.366211 730.372375,535.750671 
	C729.769104,532.088501 730.922241,530.300049 734.793335,530.613770 
	C735.949585,530.707458 737.142334,530.734314 738.283325,530.560913 
	C742.100464,529.980591 743.400696,531.632874 743.067932,535.333435 
	C741.784363,549.608887 742.407104,563.924500 742.382690,578.223694 
	C742.374207,583.204956 742.811401,588.188843 743.104370,593.168030 
	C743.291260,596.344238 742.038513,597.865906 738.712463,597.461060 
	C737.400208,597.301270 736.046143,597.352234 734.721741,597.450317 
	C731.266785,597.706360 729.818909,596.397034 730.360596,592.757751 
	C731.345093,586.142883 730.654053,579.459473 730.859924,572.810547 
	C730.966309,569.375732 729.576782,568.063354 726.150757,568.119324 
	C717.828979,568.255249 709.501526,568.266479 701.180298,568.111206 
	C697.365234,568.040039 696.204407,569.802551 696.396301,573.294006 
	C696.742981,579.601746 696.777588,585.930237 697.261597,592.225586 
	C697.604736,596.689636 695.440552,597.666748 691.593323,597.430481 
	C688.150146,597.219055 684.470642,598.197449 684.648193,592.464050 
	C684.957336,582.484375 684.752014,572.488892 684.762085,562.000000 
z"/>
<path fill="#000000" opacity="1.000000" stroke="none" 
	d="
M281.932770,539.281860 
	C287.943787,551.539246 286.580139,558.701416 276.707855,567.213257 
	C274.831848,568.830688 274.404602,570.115601 276.060730,572.181335 
	C280.533325,577.760315 284.646454,583.640076 289.314697,589.044250 
	C291.764435,591.880188 291.949463,593.793823 288.885895,595.932983 
	C288.207733,596.406555 287.560394,596.956055 287.003174,597.565796 
	C283.998871,600.853760 281.739563,600.518738 279.190643,596.732361 
	C274.083191,589.145020 268.558411,581.839417 263.259674,574.379395 
	C261.935028,572.514465 260.508118,571.227112 257.988586,571.249695 
	C255.015869,571.276306 253.232147,572.073547 253.288040,575.478943 
	C253.375336,580.798157 252.960861,586.126587 253.806992,591.424194 
	C254.458420,595.502869 253.238464,597.598267 248.542267,597.479980 
	C241.243896,597.296021 240.301041,597.092773 240.919052,591.789673 
	C242.621811,577.178223 241.541702,562.534180 241.795456,547.909668 
	C241.869934,543.616943 241.128220,539.314697 240.881134,535.009888 
	C240.762268,532.938782 240.983475,530.668274 243.787033,530.736328 
	C252.246613,530.941406 260.747009,529.828308 269.163910,531.406128 
	C274.275360,532.364319 278.430603,534.964050 281.932770,539.281860 
M258.594940,561.982300 
	C259.922150,561.903381 261.250244,561.837280 262.576385,561.743286 
	C269.274292,561.268860 273.229919,556.960083 273.069733,550.322815 
	C272.901093,543.336243 266.758423,538.917053 258.113953,539.291748 
	C254.758789,539.437073 253.250519,540.882202 253.275864,544.169067 
	C253.310471,548.656189 253.386719,553.146362 253.261902,557.630127 
	C253.172760,560.832397 254.517899,562.282043 258.594940,561.982300 
z"/>
<path fill="#000000" opacity="1.000000" stroke="none" 
	d="
M69.763077,549.805664 
	C72.303581,544.152771 74.725609,538.860779 77.086555,533.541626 
	C78.139030,531.170532 79.934715,529.733276 82.459732,529.745239 
	C84.794106,529.756287 84.959442,531.964539 85.653641,533.641479 
	C93.540154,552.692749 101.368858,571.769531 109.481102,590.724731 
	C111.185333,594.706848 110.295647,596.643982 106.414322,597.746826 
	C103.020233,598.711121 99.467979,601.116821 97.686211,595.316040 
	C96.081436,590.091492 93.802521,585.074768 91.843506,579.957825 
	C90.885872,577.456482 89.335167,576.503601 86.472748,576.758118 
	C82.176056,577.140137 77.817978,577.052063 73.497589,576.877502 
	C70.063828,576.738708 67.845222,577.786377 66.660965,581.239685 
	C65.586052,584.374146 63.879803,587.285767 62.639790,590.371216 
	C59.540733,598.082214 57.874969,598.907898 48.141659,596.521851 
	C55.348946,580.962952 62.484337,565.559265 69.763077,549.805664 
M78.179428,555.755554 
	C76.508453,559.124512 74.466881,562.360901 74.135818,566.445557 
	C78.135902,567.390808 81.866165,567.138977 85.595421,566.532471 
	C85.598999,562.197937 83.960747,557.493103 80.656105,552.124268 
	C78.916290,552.386719 79.242294,554.156311 78.179428,555.755554 
z"/>
<path fill="#000000" opacity="1.000000" stroke="none" 
	d="
M633.168030,529.525940 
	C636.987671,530.413330 640.399475,531.144226 643.763733,532.051331 
	C645.446960,532.505249 647.901489,532.524353 647.973328,534.844971 
	C648.060913,537.672058 647.247192,540.537048 645.025513,542.506897 
	C643.319763,544.019348 641.620239,542.629578 639.993530,541.815918 
	C631.279602,537.457275 622.475952,536.947876 613.711365,541.561768 
	C603.289612,547.047913 597.651550,560.673462 601.448669,570.861938 
	C606.602478,584.690857 618.218445,591.632019 631.244934,589.061707 
	C636.102722,588.103149 640.462158,586.449646 644.394348,583.482300 
	C645.530518,582.624939 646.914917,581.364319 648.402710,582.607666 
	C649.823853,583.795349 648.813782,585.313293 648.490295,586.756958 
	C646.944397,593.656433 642.287903,596.593628 635.697083,598.147705 
	C615.990356,602.794556 591.713562,592.615295 588.514648,567.985840 
	C586.426941,551.911438 597.290710,535.168030 612.998047,530.766357 
	C619.515808,528.939819 626.061340,528.418518 633.168030,529.525940 
z"/>
<path fill="#000000" opacity="1.000000" stroke="none" 
	d="
M533.361572,539.326904 
	C529.445496,539.019653 528.120422,540.728821 528.175171,544.064514 
	C528.445862,560.569580 525.884277,557.818726 541.581543,557.980896 
	C544.032288,558.006165 547.364197,556.894653 547.923218,560.809570 
	C548.450073,564.499146 545.252869,567.915405 541.521667,568.151489 
	C541.189575,568.172485 540.851868,568.128601 540.522827,568.167053 
	C536.632568,568.622070 531.130005,566.180359 529.172546,569.420410 
	C526.508301,573.830322 528.191467,579.789307 528.389954,585.076843 
	C528.493408,587.832275 530.930542,587.815308 532.919739,587.830261 
	C538.915405,587.875427 544.911987,587.782471 550.907959,587.807434 
	C553.033447,587.816284 555.717651,587.470703 555.413147,590.829041 
	C555.163879,593.578613 555.044006,597.150146 551.263062,597.239380 
	C540.607666,597.490906 529.942627,597.331116 519.281372,597.338379 
	C517.105652,597.339844 516.484924,596.141907 516.489258,594.130066 
	C516.532410,574.140442 516.576843,554.150452 516.484497,534.161194 
	C516.467957,530.582153 518.607788,530.617310 521.074829,530.619934 
	C530.237549,530.629700 539.401855,530.518250 548.561707,530.675537 
	C550.723328,530.712585 554.139099,529.183167 554.565552,533.059265 
	C554.970642,536.741089 550.834961,540.585876 547.264648,540.000488 
	C542.783264,539.265686 538.297668,539.462402 533.361572,539.326904 
z"/>
<path fill="#000000" opacity="1.000000" stroke="none" 
	d="
M459.566193,541.861023 
	C459.552002,559.241882 458.652405,576.216370 459.980988,593.164124 
	C460.214050,596.136963 459.135559,597.563843 456.077637,597.421387 
	C454.417847,597.343994 452.749756,597.410828 451.086365,597.452454 
	C448.407379,597.519409 447.367676,596.532043 447.412994,593.577454 
	C447.662994,577.273193 447.599182,560.964355 447.811646,544.659241 
	C447.860474,540.912109 446.777588,538.997742 442.726898,539.313354 
	C439.085938,539.596985 435.408813,539.435913 431.772644,539.755615 
	C429.218781,539.980042 426.510559,540.780396 426.094543,537.078796 
	C425.689850,533.477783 428.359009,530.568909 431.814728,530.562683 
	C437.473114,530.552429 443.131775,530.658630 448.790100,530.641296 
	C458.775116,530.610779 468.759979,530.527527 478.744843,530.457581 
	C480.049286,530.448425 481.440887,530.078491 482.342255,531.459045 
	C480.929474,538.703186 480.391663,540.920105 472.247955,539.695557 
	C468.248138,539.094055 463.320374,537.247925 459.566193,541.861023 
z"/>
<path fill="#000000" opacity="1.000000" stroke="none" 
	d="
M347.973572,397.211304 
	C358.690552,420.602966 349.164825,445.082794 333.772156,456.258728 
	C309.368073,473.977386 275.998322,463.263672 265.351440,435.029572 
	C256.472443,411.483612 267.990906,386.690521 284.746185,377.166290 
	C305.287598,365.489929 334.877411,370.303833 347.973572,397.211304 
M344.663849,400.911224 
	C343.661072,398.993713 342.758179,397.015778 341.639923,395.168152 
	C331.506805,378.425690 310.508942,370.876129 293.632202,377.868073 
	C268.195099,388.406647 258.856537,419.836792 274.392334,442.622620 
	C289.116089,464.217468 318.031982,466.851898 335.967896,447.795807 
	C348.483246,434.498840 351.201630,418.814575 344.663849,400.911224 
z"/>
<path fill="#000000" opacity="1.000000" stroke="none" 
	d="
M315.615356,387.031219 
	C332.324738,392.351959 340.408905,408.363892 337.888367,423.536987 
	C335.251373,439.411285 321.737610,450.587006 306.541046,450.253693 
	C286.466827,449.813385 271.454407,427.876129 277.906799,408.411255 
	C283.565674,391.340149 298.524323,382.724854 315.615356,387.031219 
M281.138885,418.408752 
	C281.455017,426.210510 283.951843,433.154236 289.785461,438.497955 
	C299.313232,447.225555 313.697449,447.753510 323.239014,439.909729 
	C334.533112,430.625366 336.571655,415.927124 329.959229,403.853027 
	C324.582794,394.035767 312.413757,388.342926 303.016907,390.693420 
	C289.654602,394.035797 281.696991,403.794434 281.138885,418.408752 
z"/>
<path fill="#000000" opacity="1.000000" stroke="none" 
	d="
M323.047974,412.380096 
	C324.997467,420.591125 323.436005,427.431152 316.630524,432.191589 
	C309.171753,437.409027 298.575256,435.241882 293.700745,427.870911 
	C288.618958,420.186523 290.652924,408.825897 297.999847,403.858459 
	C305.889648,398.524017 315.750275,400.459808 321.137817,408.452454 
	C321.871979,409.541595 322.339630,410.810394 323.047974,412.380096 
M296.083496,422.237885 
	C297.990631,427.451416 301.756927,430.517609 307.246552,430.631836 
	C312.127838,430.733398 315.867340,427.972595 317.932617,423.680328 
	C320.245026,418.874420 319.858582,413.986053 316.442413,409.657745 
	C313.214539,405.568054 307.685577,404.246399 302.983276,406.298126 
	C297.093750,408.867889 294.602509,414.142731 296.083496,422.237885 
z"/>
</svg>